# xmcd CD database file
#
# Track frame offsets:
#	150
#	27899
#	55835
#	78119
#	97705
#	120654
#	143566
#	168463
#	191563
#	209976
#	232285
#	257784
#
# Disc length: 3828 seconds
#
# Revision: 0
# Processed by: cddbd v1.5.1PL0 Copyright (c) Steve Scherf et al.
# Submitted via: CDex 1.51
#
DISCID=a30ef20c
DTITLE=Honeymunch - Solon
DYEAR=1900
DGENRE=Jazz
TTITLE0=Cascara
TTITLE1=Solon
TTITLE2=Succo
TTITLE3=Recordalectro
TTITLE4=Orbit
TTITLE5=Burn
TTITLE6=Dobbins
TTITLE7=Urxa
TTITLE8=Nord Lead
TTITLE9=Sheva
TTITLE10=Tipps and Tricks
TTITLE11=Cascara Remix
EXTD=
EXTT0=
EXTT1=
EXTT2=
EXTT3=
EXTT4=
EXTT5=
EXTT6=
EXTT7=
EXTT8=
EXTT9=
EXTT10=
EXTT11=
PLAYORDER=
